<svg id="Vrstva_1" data-name="Vrstva 1" xmlns="http://www.w3.org/2000/svg" viewBox="0 0 21 16.64"><title>archiv</title><path d="M342.73,411.25l-4.91-13.5-0.27-.75-0.75.27-3,1.09-0.75.27,0.27,0.75,4.91,13.5,0.27,0.75,0.75-.27,3-1.09L343,412Zm-5.87-4.45-2.39-6.56,3-1.09,2.39,6.56Zm3.07,3.77a1,1,0,1,1,.6-1.28,1,1,0,0,1-.6,1.28h0Z" transform="translate(-322 -397)"/><path d="M326,397.67h-4v16h4.79v-16H326Zm-1.6,13.57a1,1,0,1,1,1-1,1,1,0,0,1-1,1h0Zm1.6-4.59H322.8v-7H326v7Z" transform="translate(-322 -397)"/><path d="M332.18,397.67h-4v16H333v-16h-0.8Zm-1.6,13.57a1,1,0,1,1,1-1,1,1,0,0,1-1,1h0Zm1.6-4.59H329v-7h3.19v7Z" transform="translate(-322 -397)"/></svg>