<svg id="Vrstva_1" data-name="Vrstva 1" xmlns="http://www.w3.org/2000/svg" viewBox="0 0 106 130"><title>ctecka_stahnout_over</title><path d="M385,374.59a3.38,3.38,0,0,0-.71-1.65s-0.13,0-.14-0.05a3.75,3.75,0,0,0-.31-0.33l-0.16-.17L353.08,341v0a3.18,3.18,0,0,0-2.27-1H290a11,11,0,0,0-11,10.85V459.16A11,11,0,0,0,290,470h83.72c6,0,11.28-4.86,11.28-10.82V374.61h0Zm-33.52,40a4.42,4.42,0,0,1,0,6.25L335,437.37a4.42,4.42,0,0,1-1.42,1,4.36,4.36,0,0,1-1.7.34,4.42,4.42,0,0,1-1.71-.35c-0.11,0-.19-0.14-0.3-0.2a4.32,4.32,0,0,1-1.1-.74l-16.49-16.52a4.34,4.34,0,0,1-1.26-3.12,4.45,4.45,0,0,1,1.37-3.13,4.59,4.59,0,0,1,6.38,0l9.25,9V391.08c0-2.44,2.57-4.42,5-4.42s5,2,5,4.42v32.51l8.1-9A3.46,3.46,0,0,1,351.48,414.62ZM354,351l19.88,20H354V351Z" transform="translate(-279 -340)"/></svg>