<svg id="Vrstva_1" data-name="Vrstva 1" xmlns="http://www.w3.org/2000/svg" viewBox="0 0 25.13 25.13"><title>ctecka_citace_over</title><path d="M332.57,391.87a12.57,12.57,0,1,0,12.57,12.57A12.58,12.58,0,0,0,332.57,391.87Zm-1.26,12.34c-0.09,1.61-.82,4-3.73,6.36a0.75,0.75,0,0,1-1.06-.15,0.8,0.8,0,0,1,.14-1.1c2.37-1.91,3-3.78,3.12-5.06a2.25,2.25,0,0,1-1.12.32,2.4,2.4,0,0,1,0-4.8,2.19,2.19,0,0,1,.8.18v0l0.27,0.12h0v0l0.37,0.25,0.16,0.17A4.42,4.42,0,0,1,331.3,404.21Zm7.6,0c-0.09,1.62-.82,4-3.73,6.36a0.71,0.71,0,0,1-.47.17,0.74,0.74,0,0,1-.6-0.31,0.79,0.79,0,0,1,.14-1.1c2.37-1.91,3-3.78,3.12-5.06a2.22,2.22,0,0,1-1.12.32,2.4,2.4,0,0,1,0-4.8,2.19,2.19,0,0,1,.8.18v0l0.27,0.12h0v0l0.37,0.25,0.16,0.17A4.41,4.41,0,0,1,338.91,404.2Z" transform="translate(-320 -391.87)"/></svg>