<svg id="Vrstva_1" data-name="Vrstva 1" xmlns="http://www.w3.org/2000/svg" viewBox="0 0 106 130"><title>ctecka_stahnout</title><path d="M346.1,414.63l-8.1,9V391.08c0-2.44-2.56-4.42-5-4.42s-5,2-5,4.42v32.53l-9.25-9a4.59,4.59,0,0,0-6.38,0,4.45,4.45,0,0,0-1.37,3.13,4.34,4.34,0,0,0,1.26,3.12l16.49,16.52a4.32,4.32,0,0,0,1.1.74c0.11,0.06.18,0.15,0.3,0.2a4.42,4.42,0,0,0,1.71.35,4.36,4.36,0,0,0,1.7-.34,4.42,4.42,0,0,0,1.42-1l16.5-16.5a4.42,4.42,0,0,0,0-6.25A3.46,3.46,0,0,0,346.1,414.63Z" transform="translate(-279 -340)"/><path d="M385,374.59a3.38,3.38,0,0,0-.71-1.65s-0.13,0-.14-0.05a3.75,3.75,0,0,0-.31-0.33l-0.16-.17L353.08,341v0a3.18,3.18,0,0,0-2.27-1H290a11,11,0,0,0-11,10.85V459.16A11,11,0,0,0,290,470h83.72c6,0,11.28-4.86,11.28-10.82V374.61h0ZM354,351l19.88,20H354V351Zm19.72,113H290c-2.48,0-4-2.35-4-4.84V350.85c0-2.48,1.53-4.85,4-4.85h58v28.61c0,1.74,1.05,3.39,2.8,3.39H378v81.16C378,461.65,376.2,464,373.72,464Z" transform="translate(-279 -340)"/></svg>