<svg id="Vrstva_1" data-name="Vrstva 1" xmlns="http://www.w3.org/2000/svg" viewBox="0 0 25.13 25.13"><title>ctecka_citace</title><path d="M331.3,404.21c-0.09,1.61-.82,4-3.73,6.36a0.75,0.75,0,0,1-1.06-.15,0.8,0.8,0,0,1,.14-1.1c2.37-1.91,3-3.78,3.12-5.06a2.25,2.25,0,0,1-1.12.32,2.4,2.4,0,0,1,0-4.8,2.19,2.19,0,0,1,.8.18v0l0.27,0.12h0v0l0.37,0.25,0.16,0.17a4.42,4.42,0,0,1,1,3.7h0Zm7.6,0a4.41,4.41,0,0,0-1-3.7l-0.16-.17-0.37-.25v0h0l-0.27-.12v0a2.19,2.19,0,0,0-.8-0.18,2.4,2.4,0,0,0,0,4.8,2.22,2.22,0,0,0,1.12-.32c-0.11,1.28-.76,3.15-3.12,5.06a0.79,0.79,0,0,0-.14,1.1,0.74,0.74,0,0,0,.6.31,0.71,0.71,0,0,0,.47-0.17c2.91-2.34,3.64-4.75,3.73-6.36h0Zm-6.34-12.34A12.57,12.57,0,1,1,320,404.43a12.58,12.58,0,0,1,12.57-12.57h0Zm0,23.88a11.31,11.31,0,1,0-11.31-11.31,11.32,11.32,0,0,0,11.31,11.31h0Z" transform="translate(-320 -391.87)"/></svg>