<svg id="Vrstva_1" data-name="Vrstva 1" xmlns="http://www.w3.org/2000/svg" viewBox="0 0 27.94 27.94"><title>sdilet_link</title><path d="M385,358a14,14,0,1,1-14,14,14,14,0,0,1,14-14h0Zm-1.4,11.22a1,1,0,0,0,.91.06l1.52-1.52a2.66,2.66,0,0,1,1.89-.79,2.7,2.7,0,0,1,2.68,2.68,2.67,2.67,0,0,1-.79,1.89l-1.52,1.52a0.59,0.59,0,0,0,0,.85l0.85,0.85a0.59,0.59,0,0,0,.85,0l1.52-1.52a5.2,5.2,0,0,0,1.52-3.65,5.12,5.12,0,0,0-8.76-3.59l-1.52,1.52a0.59,0.59,0,0,0,0,.85l0.85,0.85h0Zm3.47,0.3a0.59,0.59,0,0,0-.85,0l-4,4a0.58,0.58,0,0,0,0,.85l0.85,0.85a0.58,0.58,0,0,0,.85,0l4-4a0.59,0.59,0,0,0,0-.85l-0.85-.85h0Zm-9.92,5.66a5,5,0,0,0,5.05,5.05,5.12,5.12,0,0,0,3.65-1.52l1.52-1.52a0.59,0.59,0,0,0,0-.85l-0.85-.85a0.59,0.59,0,0,0-.85,0L384.12,377a2.67,2.67,0,0,1-1.89.79,2.67,2.67,0,0,1-1.89-4.56l1.52-1.52a0.58,0.58,0,0,0,0-.85L381,370a0.59,0.59,0,0,0-.85,0l-1.52,1.52a5.21,5.21,0,0,0-1.52,3.65h0Zm0,0" transform="translate(-371 -358)"/></svg>