<svg id="Vrstva_1" data-name="Vrstva 1" xmlns="http://www.w3.org/2000/svg" viewBox="0 0 27.94 27.94"><title>google_plus</title><path d="M385,358a14,14,0,1,1-14,14,14,14,0,0,1,14-14h0Zm2.69,15.65a7.9,7.9,0,0,0,.09-1.19,7,7,0,0,0-.1-1.21H382v2.4h3.22A3,3,0,0,1,382,376a3.55,3.55,0,0,1-3.52-3.56,3.59,3.59,0,0,1,3.52-3.6,3.16,3.16,0,0,1,2.3.9l1.72-1.72a5.68,5.68,0,0,0-4-1.56,6,6,0,1,0,0,12,5.42,5.42,0,0,0,5.68-4.79h0Zm7.19-2.24h-2.1v-2.1h-1.49v2.1h-2.1v1.49h2.1V375h1.49v-2.1h2.1v-1.49Zm0,1.49" transform="translate(-371.06 -358)"/></svg>