<svg id="Vrstva_1" data-name="Vrstva 1" xmlns="http://www.w3.org/2000/svg" viewBox="0 0 26.86 28.53"><title>vymyzat_over</title><path d="M321.52,414.33H319.7a0.7,0.7,0,0,0,0,1.41h1.82A0.7,0.7,0,1,0,321.52,414.33Z" transform="translate(-319 -391)"/><path d="M323.54,417l-1.29,1.29a0.7,0.7,0,1,0,1,1l1.29-1.29A0.7,0.7,0,0,0,323.54,417Z" transform="translate(-319 -391)"/><path d="M345.16,415H332.82l12.63-12.79a1.78,1.78,0,0,0,0-2.28L336.81,391h-2L321,405a4.44,4.44,0,0,0-1.24,3.09,4.32,4.32,0,0,0,1.24,3l4.16,4.15a2.43,2.43,0,0,0,1.74.7h18.26c0.39,0,.7-0.11.7-0.5S345.55,415,345.16,415Zm-13-3.4a0.7,0.7,0,0,1-.5-0.21L324.25,404l1-1,7.43,7.43A0.7,0.7,0,0,1,332.18,411.6Z" transform="translate(-319 -391)"/></svg>