<svg id="Vrstva_1" data-name="Vrstva 1" xmlns="http://www.w3.org/2000/svg" viewBox="0 0 21.1 11.2"><title>bryle</title><path d="M396,371.22a0.87,0.87,0,0,0-.76-0.84l-0.34,0-4.33-3.19a3.41,3.41,0,0,0-2.92-.55,0.68,0.68,0,0,0,.35,1.32,2.06,2.06,0,0,1,1.76.33l2.6,1.92a13.46,13.46,0,0,0-1.61.12,17.12,17.12,0,0,0-2.4.51l-0.41.08a12.76,12.76,0,0,1-4.85,0l-0.46-.09a17.43,17.43,0,0,0-2.43-.51,13.42,13.42,0,0,0-1.61-.12l2.6-1.92a2.06,2.06,0,0,1,1.76-.33,0.68,0.68,0,0,0,.35-1.32,3.41,3.41,0,0,0-2.92.55l-4.33,3.19-0.33,0a0.87,0.87,0,0,0-.76.84l0,0.76a0.84,0.84,0,0,0,.5.81,0.38,0.38,0,0,1,.22.3l0.1,1.43a3.45,3.45,0,0,0,3.34,3.11l1.6,0a3.43,3.43,0,0,0,2.93-1.64l1.29-2.26a0.68,0.68,0,0,1,.53-0.17h0.1a0.72,0.72,0,0,1,.51.16l1.31,2.3a3.43,3.43,0,0,0,2.92,1.62l1.6,0a3.46,3.46,0,0,0,3.34-3.12l0.1-1.42a0.37,0.37,0,0,1,.18-0.28,0.85,0.85,0,0,0,.54-0.83Zm-4.09.47a4.82,4.82,0,0,1,.63,0,1.26,1.26,0,0,1,1.19,1.13l0.06,1.47a1.88,1.88,0,0,1-1.8,2l-1.32,0a3.2,3.2,0,0,1-3-2.37A1.59,1.59,0,0,1,389,372a18.33,18.33,0,0,1,2.93-.32h0Zm-11.63,4.63-1.33,0a1.88,1.88,0,0,1-1.8-2l0.06-1.47a1.26,1.26,0,0,1,1.19-1.13A13.5,13.5,0,0,1,382,372a1.59,1.59,0,0,1,1.27,1.94,3.2,3.2,0,0,1-3,2.37h0Zm0,0" transform="translate(-374.96 -366.47)"/></svg>