<svg id="Vrstva_1" data-name="Vrstva 1" xmlns="http://www.w3.org/2000/svg" viewBox="0 0 26.66 26.66"><title>ctecka_maximalizovat</title><path d="M398.27,358.25H373a0.66,0.66,0,0,0-.66.66v12.14a0.66,0.66,0,0,0,.66.66,0.67,0.67,0,0,0,.67-0.66V359.59h24v24H386.07a0.67,0.67,0,1,0,0,1.34h12.21a0.67,0.67,0,0,0,.67-0.67V358.92a0.67,0.67,0,0,0-.67-0.67h0Z" transform="translate(-372.29 -358.25)"/><path d="M372.29,384.24a0.67,0.67,0,0,0,.66.67h9.28a0.67,0.67,0,0,0,.67-0.67V375a0.67,0.67,0,0,0-.67-0.67H373a0.67,0.67,0,0,0-.66.67v9.28h0Zm1.34-8.61h7.95v7.95h-7.95v-7.95Z" transform="translate(-372.29 -358.25)"/><path d="M384.43,372.76a0.67,0.67,0,0,0,.95,0l7.55-7.56v4.35a0.67,0.67,0,0,0,1.34,0v-6a0.67,0.67,0,0,0-.67-0.67h-6a0.67,0.67,0,0,0,0,1.34H392l-7.56,7.55a0.66,0.66,0,0,0,0,.94h0Z" transform="translate(-372.29 -358.25)"/></svg>