<svg id="Vrstva_1" data-name="Vrstva 1" xmlns="http://www.w3.org/2000/svg" viewBox="0 0 26.66 26.66"><title>ctecka_minimalizovat_over</title><path d="M398.27,358.75H373a0.66,0.66,0,0,0-.66.66v12.14a0.66,0.66,0,0,0,.66.66,0.67,0.67,0,0,0,.67-0.66V360.09h24v24H386.07a0.67,0.67,0,1,0,0,1.34h12.21a0.67,0.67,0,0,0,.67-0.67V359.42a0.67,0.67,0,0,0-.67-0.67h0Z" transform="translate(-372.29 -358.75)"/><path d="M372.29,384.74a0.67,0.67,0,0,0,.66.67h9.28a0.67,0.67,0,0,0,.67-0.67v-9.28a0.67,0.67,0,0,0-.67-0.67H373a0.67,0.67,0,0,0-.66.67v9.28h0Z" transform="translate(-372.29 -358.75)"/><path d="M394.08,363.62a0.67,0.67,0,0,0-.95,0l-7.55,7.56v-4.35a0.67,0.67,0,1,0-1.34,0v6a0.67,0.67,0,0,0,.67.67h6a0.67,0.67,0,0,0,0-1.34h-4.35l7.56-7.55a0.66,0.66,0,0,0,0-.94h0Z" transform="translate(-372.29 -358.75)"/></svg>