<svg id="Vrstva_1" data-name="Vrstva 1" xmlns="http://www.w3.org/2000/svg" viewBox="0 0 26.77 26.77"><title>ctecka_tisk_over</title><path d="M326.74,397.05h10.38v2.28h3.11v-5.91a1.67,1.67,0,0,0-1.67-1.67H325.17a1.67,1.67,0,0,0-1.67,1.67v5.91h3.24v-2.28Zm16.84,1.39H320.16a1.67,1.67,0,0,0-1.67,1.67v8.36a1.67,1.67,0,0,0,1.67,1.67h3.35v6.69a1.67,1.67,0,0,0,1.67,1.67h13.38a1.67,1.67,0,0,0,1.67-1.67v-6.69h3.35a1.67,1.67,0,0,0,1.67-1.67v-8.36a1.67,1.67,0,0,0-1.67-1.67h0Zm-1.67,5a1.67,1.67,0,1,1,1.67-1.67,1.67,1.67,0,0,1-1.67,1.67h0Zm-15.06,3.35h6.69v1.67h-6.69v-1.67Zm0,3.35h10v1.67h-10v-1.67Zm0,3.35h10v1.67h-10V413.5Z" transform="translate(-318.48 -391.75)"/></svg>