<svg id="Vrstva_1" data-name="Vrstva 1" xmlns="http://www.w3.org/2000/svg" viewBox="0 0 26.77 26.77"><title>ctecka_tisk</title><path d="M325.92,393.43h13.38v3.35H341v-3.35a1.67,1.67,0,0,0-1.67-1.67H325.92a1.67,1.67,0,0,0-1.67,1.67v3.35h1.67v-3.35Zm18.4,5H320.91a1.67,1.67,0,0,0-1.67,1.67v8.36a1.67,1.67,0,0,0,1.67,1.67h3.35v6.69a1.67,1.67,0,0,0,1.67,1.67h13.38a1.67,1.67,0,0,0,1.67-1.67v-6.69h3.35a1.67,1.67,0,0,0,1.67-1.67v-8.36a1.67,1.67,0,0,0-1.67-1.67h0Zm-5,18.4H325.92V405.14h13.38v11.71Zm3.35-13.38a1.67,1.67,0,1,1,1.67-1.67,1.67,1.67,0,0,1-1.67,1.67h0Zm-15.06,3.35h6.69v1.67H327.6v-1.67Zm0,3.35h10v1.67h-10v-1.67Zm0,3.35h10v1.67h-10V413.5Z" transform="translate(-319.23 -391.75)"/></svg>