<svg id="Vrstva_1" data-name="Vrstva 1" xmlns="http://www.w3.org/2000/svg" viewBox="0 0 24.1 24.1"><title>lupa</title><path d="M523.44,392.24l-5.53-5.53a10.64,10.64,0,0,1-3.2,3.2l5.53,5.53a2.26,2.26,0,0,0,3.2-3.2h0Z" transform="translate(-500 -372)"/><path d="M518.08,381a9,9,0,1,0-9,9,9,9,0,0,0,9-9h0Zm-9,6.78a6.78,6.78,0,1,1,6.78-6.78,6.79,6.79,0,0,1-6.78,6.78h0Z" transform="translate(-500 -372)"/><path d="M503.77,381h1.51a3.77,3.77,0,0,1,3.77-3.77v-1.51a5.28,5.28,0,0,0-5.27,5.27h0Z" transform="translate(-500 -372)"/></svg>