<svg id="Vrstva_1" data-name="Vrstva 1" xmlns="http://www.w3.org/2000/svg" viewBox="0 0 26.86 28.53"><title>vymazat</title><path d="M321.52,413.8H319.7a0.7,0.7,0,1,0,0,1.41h1.82A0.7,0.7,0,1,0,321.52,413.8Z" transform="translate(-319 -390.47)"/><path d="M323.54,416.51l-1.29,1.29a0.7,0.7,0,1,0,1,1l1.29-1.29A0.7,0.7,0,0,0,323.54,416.51Z" transform="translate(-319 -390.47)"/><path d="M345.16,414.15H332.82l12.63-12.63a1.41,1.41,0,0,0,0-2l-8.64-8.64a1.41,1.41,0,0,0-2,0L321,404.7a4.22,4.22,0,0,0,0,6l4.16,4.16a2.45,2.45,0,0,0,1.74.72h18.26A0.7,0.7,0,0,0,345.16,414.15Zm-18.26,0a1,1,0,0,1-.75-0.31L322,409.68a2.82,2.82,0,0,1,0-4l2.26-2.26,7.43,7.43a0.7,0.7,0,0,0,1-1l-7.43-7.43,10.56-10.56,8.64,8.64-13.63,13.63H326.9Z" transform="translate(-319 -390.47)"/></svg>